<mxfile host="app.diagrams.net" agent="Mozilla/5.0 (Windows NT 10.0; Win64; x64) AppleWebKit/537.36 (KHTML, like Gecko) Chrome/128.0.0.0 Safari/537.36 OPR/114.0.0.0" version="24.8.6">
  <diagram id="C5RBs43oDa-KdzZeNtuy" name="Page-1">
    <mxGraphModel dx="1441" dy="796" grid="1" gridSize="10" guides="1" tooltips="1" connect="1" arrows="1" fold="1" page="1" pageScale="1" pageWidth="827" pageHeight="1169" math="0" shadow="0">
      <root>
        <mxCell id="WIyWlLk6GJQsqaUBKTNV-0" />
        <mxCell id="WIyWlLk6GJQsqaUBKTNV-1" parent="WIyWlLk6GJQsqaUBKTNV-0" />
        <mxCell id="19oC4wSZYdJJeI38Iw4X-2" value="" style="edgeStyle=orthogonalEdgeStyle;rounded=0;orthogonalLoop=1;jettySize=auto;html=1;" edge="1" parent="WIyWlLk6GJQsqaUBKTNV-1" source="19oC4wSZYdJJeI38Iw4X-0" target="19oC4wSZYdJJeI38Iw4X-1">
          <mxGeometry relative="1" as="geometry" />
        </mxCell>
        <mxCell id="19oC4wSZYdJJeI38Iw4X-0" value="&lt;div style=&quot;line-height: 22px; white-space: pre;&quot;&gt;&lt;font style=&quot;font-size: 12px;&quot; face=&quot;Helvetica&quot;&gt;bool isPalindrome(string str,&lt;/font&gt;&lt;/div&gt;&lt;div style=&quot;line-height: 22px; white-space: pre;&quot;&gt;&lt;font style=&quot;font-size: 12px;&quot; face=&quot;Helvetica&quot;&gt;int start, int end)&lt;/font&gt;&lt;/div&gt;" style="ellipse;whiteSpace=wrap;html=1;" vertex="1" parent="WIyWlLk6GJQsqaUBKTNV-1">
          <mxGeometry x="100" y="40" width="190" height="90" as="geometry" />
        </mxCell>
        <mxCell id="19oC4wSZYdJJeI38Iw4X-1" value="start &amp;lt; end" style="rhombus;whiteSpace=wrap;html=1;" vertex="1" parent="WIyWlLk6GJQsqaUBKTNV-1">
          <mxGeometry x="147.5" y="180" width="95" height="80" as="geometry" />
        </mxCell>
        <mxCell id="19oC4wSZYdJJeI38Iw4X-3" value="str[start] ==&lt;div&gt;str[end]&lt;/div&gt;" style="rhombus;whiteSpace=wrap;html=1;" vertex="1" parent="WIyWlLk6GJQsqaUBKTNV-1">
          <mxGeometry x="140" y="340" width="110" height="90" as="geometry" />
        </mxCell>
        <mxCell id="19oC4wSZYdJJeI38Iw4X-4" value="" style="endArrow=classic;html=1;rounded=0;exitX=0.5;exitY=1;exitDx=0;exitDy=0;entryX=0.5;entryY=0;entryDx=0;entryDy=0;" edge="1" parent="WIyWlLk6GJQsqaUBKTNV-1" source="19oC4wSZYdJJeI38Iw4X-1" target="19oC4wSZYdJJeI38Iw4X-3">
          <mxGeometry relative="1" as="geometry">
            <mxPoint x="150" y="300" as="sourcePoint" />
            <mxPoint x="250" y="300" as="targetPoint" />
          </mxGeometry>
        </mxCell>
        <mxCell id="19oC4wSZYdJJeI38Iw4X-5" value="True" style="edgeLabel;resizable=0;html=1;;align=center;verticalAlign=middle;" connectable="0" vertex="1" parent="19oC4wSZYdJJeI38Iw4X-4">
          <mxGeometry relative="1" as="geometry" />
        </mxCell>
        <mxCell id="19oC4wSZYdJJeI38Iw4X-6" value="return 1" style="rounded=0;whiteSpace=wrap;html=1;" vertex="1" parent="WIyWlLk6GJQsqaUBKTNV-1">
          <mxGeometry x="320" y="195" width="90" height="50" as="geometry" />
        </mxCell>
        <mxCell id="19oC4wSZYdJJeI38Iw4X-7" value="" style="endArrow=classic;html=1;rounded=0;exitX=1;exitY=0.5;exitDx=0;exitDy=0;entryX=0;entryY=0.5;entryDx=0;entryDy=0;" edge="1" parent="WIyWlLk6GJQsqaUBKTNV-1" source="19oC4wSZYdJJeI38Iw4X-1" target="19oC4wSZYdJJeI38Iw4X-6">
          <mxGeometry relative="1" as="geometry">
            <mxPoint x="250" y="210" as="sourcePoint" />
            <mxPoint x="350" y="210" as="targetPoint" />
          </mxGeometry>
        </mxCell>
        <mxCell id="19oC4wSZYdJJeI38Iw4X-8" value="False" style="edgeLabel;resizable=0;html=1;;align=center;verticalAlign=middle;" connectable="0" vertex="1" parent="19oC4wSZYdJJeI38Iw4X-7">
          <mxGeometry relative="1" as="geometry" />
        </mxCell>
        <mxCell id="19oC4wSZYdJJeI38Iw4X-15" style="edgeStyle=orthogonalEdgeStyle;rounded=0;orthogonalLoop=1;jettySize=auto;html=1;exitX=0;exitY=0.5;exitDx=0;exitDy=0;" edge="1" parent="WIyWlLk6GJQsqaUBKTNV-1" source="19oC4wSZYdJJeI38Iw4X-10">
          <mxGeometry relative="1" as="geometry">
            <mxPoint x="195" y="150" as="targetPoint" />
            <Array as="points">
              <mxPoint x="60" y="525" />
              <mxPoint x="60" y="150" />
            </Array>
          </mxGeometry>
        </mxCell>
        <mxCell id="19oC4wSZYdJJeI38Iw4X-10" value="&lt;div style=&quot;line-height: 22px; white-space: pre;&quot;&gt;&lt;font face=&quot;Helvetica&quot; style=&quot;font-size: 12px;&quot;&gt;bool recursion =&lt;/font&gt;&lt;/div&gt;&lt;div style=&quot;line-height: 22px; white-space: pre;&quot;&gt;&lt;font face=&quot;Helvetica&quot; style=&quot;font-size: 12px;&quot;&gt;isPalindrome(str, start+1, end-1)&lt;/font&gt;&lt;/div&gt;" style="rounded=0;whiteSpace=wrap;html=1;" vertex="1" parent="WIyWlLk6GJQsqaUBKTNV-1">
          <mxGeometry x="87.5" y="495" width="215" height="60" as="geometry" />
        </mxCell>
        <mxCell id="19oC4wSZYdJJeI38Iw4X-11" value="" style="endArrow=classic;html=1;rounded=0;exitX=0.5;exitY=1;exitDx=0;exitDy=0;entryX=0.5;entryY=0;entryDx=0;entryDy=0;" edge="1" parent="WIyWlLk6GJQsqaUBKTNV-1" source="19oC4wSZYdJJeI38Iw4X-3" target="19oC4wSZYdJJeI38Iw4X-10">
          <mxGeometry relative="1" as="geometry">
            <mxPoint x="80" y="450" as="sourcePoint" />
            <mxPoint x="180" y="450" as="targetPoint" />
          </mxGeometry>
        </mxCell>
        <mxCell id="19oC4wSZYdJJeI38Iw4X-12" value="True" style="edgeLabel;resizable=0;html=1;;align=center;verticalAlign=middle;" connectable="0" vertex="1" parent="19oC4wSZYdJJeI38Iw4X-11">
          <mxGeometry relative="1" as="geometry">
            <mxPoint y="-3" as="offset" />
          </mxGeometry>
        </mxCell>
        <mxCell id="19oC4wSZYdJJeI38Iw4X-19" value="return 0" style="rounded=0;whiteSpace=wrap;html=1;" vertex="1" parent="WIyWlLk6GJQsqaUBKTNV-1">
          <mxGeometry x="320" y="360" width="90" height="50" as="geometry" />
        </mxCell>
        <mxCell id="19oC4wSZYdJJeI38Iw4X-20" value="" style="endArrow=classic;html=1;rounded=0;exitX=1;exitY=0.5;exitDx=0;exitDy=0;entryX=0;entryY=0.5;entryDx=0;entryDy=0;" edge="1" parent="WIyWlLk6GJQsqaUBKTNV-1" target="19oC4wSZYdJJeI38Iw4X-19">
          <mxGeometry relative="1" as="geometry">
            <mxPoint x="250" y="385" as="sourcePoint" />
            <mxPoint x="357" y="375" as="targetPoint" />
          </mxGeometry>
        </mxCell>
        <mxCell id="19oC4wSZYdJJeI38Iw4X-21" value="False" style="edgeLabel;resizable=0;html=1;;align=center;verticalAlign=middle;" connectable="0" vertex="1" parent="19oC4wSZYdJJeI38Iw4X-20">
          <mxGeometry relative="1" as="geometry" />
        </mxCell>
        <mxCell id="19oC4wSZYdJJeI38Iw4X-24" value="" style="edgeStyle=orthogonalEdgeStyle;rounded=0;orthogonalLoop=1;jettySize=auto;html=1;" edge="1" parent="WIyWlLk6GJQsqaUBKTNV-1" source="19oC4wSZYdJJeI38Iw4X-22" target="19oC4wSZYdJJeI38Iw4X-23">
          <mxGeometry relative="1" as="geometry" />
        </mxCell>
        <mxCell id="19oC4wSZYdJJeI38Iw4X-22" value="&lt;div style=&quot;line-height: 22px; white-space: pre;&quot;&gt;&lt;font style=&quot;font-size: 12px;&quot; face=&quot;Helvetica&quot;&gt;bool isPalindrome(const int a&lt;/font&gt;&lt;span style=&quot;background-color: initial;&quot;&gt;)&lt;/span&gt;&lt;/div&gt;" style="ellipse;whiteSpace=wrap;html=1;" vertex="1" parent="WIyWlLk6GJQsqaUBKTNV-1">
          <mxGeometry x="560" y="40" width="190" height="90" as="geometry" />
        </mxCell>
        <mxCell id="19oC4wSZYdJJeI38Iw4X-26" value="" style="edgeStyle=orthogonalEdgeStyle;rounded=0;orthogonalLoop=1;jettySize=auto;html=1;" edge="1" parent="WIyWlLk6GJQsqaUBKTNV-1" source="19oC4wSZYdJJeI38Iw4X-23">
          <mxGeometry relative="1" as="geometry">
            <mxPoint x="655" y="280" as="targetPoint" />
          </mxGeometry>
        </mxCell>
        <mxCell id="19oC4wSZYdJJeI38Iw4X-23" value="int counter = 1;&lt;div&gt;int start = 0; int i = 1&lt;/div&gt;" style="shape=internalStorage;whiteSpace=wrap;html=1;backgroundOutline=1;dx=15;dy=10;" vertex="1" parent="WIyWlLk6GJQsqaUBKTNV-1">
          <mxGeometry x="578.75" y="170" width="152.5" height="75" as="geometry" />
        </mxCell>
        <mxCell id="19oC4wSZYdJJeI38Iw4X-42" style="edgeStyle=orthogonalEdgeStyle;rounded=0;orthogonalLoop=1;jettySize=auto;html=1;entryX=0;entryY=0.5;entryDx=0;entryDy=0;" edge="1" parent="WIyWlLk6GJQsqaUBKTNV-1" source="19oC4wSZYdJJeI38Iw4X-43" target="19oC4wSZYdJJeI38Iw4X-41">
          <mxGeometry relative="1" as="geometry">
            <Array as="points">
              <mxPoint x="500" y="320" />
              <mxPoint x="500" y="580" />
            </Array>
          </mxGeometry>
        </mxCell>
        <mxCell id="19oC4wSZYdJJeI38Iw4X-27" value="break?" style="rhombus;whiteSpace=wrap;html=1;" vertex="1" parent="WIyWlLk6GJQsqaUBKTNV-1">
          <mxGeometry x="615" y="280" width="80" height="80" as="geometry" />
        </mxCell>
        <mxCell id="19oC4wSZYdJJeI38Iw4X-28" value="if (a / i &amp;gt;=10" style="rhombus;whiteSpace=wrap;html=1;" vertex="1" parent="WIyWlLk6GJQsqaUBKTNV-1">
          <mxGeometry x="712.5" y="400" width="105" height="80" as="geometry" />
        </mxCell>
        <mxCell id="19oC4wSZYdJJeI38Iw4X-30" value="" style="endArrow=classic;html=1;rounded=0;exitX=0.5;exitY=1;exitDx=0;exitDy=0;entryX=0.5;entryY=0;entryDx=0;entryDy=0;" edge="1" parent="WIyWlLk6GJQsqaUBKTNV-1" source="19oC4wSZYdJJeI38Iw4X-40" target="19oC4wSZYdJJeI38Iw4X-28">
          <mxGeometry relative="1" as="geometry">
            <mxPoint x="580" y="390" as="sourcePoint" />
            <mxPoint x="680" y="390" as="targetPoint" />
            <Array as="points" />
          </mxGeometry>
        </mxCell>
        <mxCell id="19oC4wSZYdJJeI38Iw4X-76" style="edgeStyle=orthogonalEdgeStyle;rounded=0;orthogonalLoop=1;jettySize=auto;html=1;exitX=0;exitY=0.5;exitDx=0;exitDy=0;" edge="1" parent="WIyWlLk6GJQsqaUBKTNV-1" source="19oC4wSZYdJJeI38Iw4X-32">
          <mxGeometry relative="1" as="geometry">
            <mxPoint x="655" y="260" as="targetPoint" />
            <mxPoint x="624.4999999999999" y="421.25" as="sourcePoint" />
            <Array as="points">
              <mxPoint x="520" y="440" />
              <mxPoint x="520" y="260" />
            </Array>
          </mxGeometry>
        </mxCell>
        <mxCell id="19oC4wSZYdJJeI38Iw4X-32" value="counter++" style="rounded=0;whiteSpace=wrap;html=1;" vertex="1" parent="WIyWlLk6GJQsqaUBKTNV-1">
          <mxGeometry x="580" y="421.25" width="79" height="37.5" as="geometry" />
        </mxCell>
        <mxCell id="19oC4wSZYdJJeI38Iw4X-33" value="" style="endArrow=classic;html=1;rounded=0;exitX=0;exitY=0.5;exitDx=0;exitDy=0;entryX=1;entryY=0.5;entryDx=0;entryDy=0;" edge="1" parent="WIyWlLk6GJQsqaUBKTNV-1" source="19oC4wSZYdJJeI38Iw4X-28" target="19oC4wSZYdJJeI38Iw4X-32">
          <mxGeometry relative="1" as="geometry">
            <mxPoint x="650" y="495" as="sourcePoint" />
            <mxPoint x="750" y="495" as="targetPoint" />
          </mxGeometry>
        </mxCell>
        <mxCell id="19oC4wSZYdJJeI38Iw4X-34" value="True" style="edgeLabel;resizable=0;html=1;;align=center;verticalAlign=middle;" connectable="0" vertex="1" parent="19oC4wSZYdJJeI38Iw4X-33">
          <mxGeometry relative="1" as="geometry" />
        </mxCell>
        <mxCell id="19oC4wSZYdJJeI38Iw4X-35" value="break" style="rounded=0;whiteSpace=wrap;html=1;" vertex="1" parent="WIyWlLk6GJQsqaUBKTNV-1">
          <mxGeometry x="880" y="421.25" width="79" height="37.5" as="geometry" />
        </mxCell>
        <mxCell id="19oC4wSZYdJJeI38Iw4X-36" value="" style="endArrow=classic;html=1;rounded=0;exitX=1;exitY=0.5;exitDx=0;exitDy=0;entryX=0;entryY=0.5;entryDx=0;entryDy=0;" edge="1" parent="WIyWlLk6GJQsqaUBKTNV-1" target="19oC4wSZYdJJeI38Iw4X-35" source="19oC4wSZYdJJeI38Iw4X-28">
          <mxGeometry relative="1" as="geometry">
            <mxPoint x="850" y="440" as="sourcePoint" />
            <mxPoint x="1043.75" y="495" as="targetPoint" />
          </mxGeometry>
        </mxCell>
        <mxCell id="19oC4wSZYdJJeI38Iw4X-37" value="False" style="edgeLabel;resizable=0;html=1;;align=center;verticalAlign=middle;" connectable="0" vertex="1" parent="19oC4wSZYdJJeI38Iw4X-36">
          <mxGeometry relative="1" as="geometry" />
        </mxCell>
        <mxCell id="19oC4wSZYdJJeI38Iw4X-39" value="" style="endArrow=none;html=1;rounded=0;exitX=1;exitY=0.5;exitDx=0;exitDy=0;entryX=0;entryY=0.5;entryDx=0;entryDy=0;endFill=0;" edge="1" parent="WIyWlLk6GJQsqaUBKTNV-1" source="19oC4wSZYdJJeI38Iw4X-27" target="19oC4wSZYdJJeI38Iw4X-40">
          <mxGeometry relative="1" as="geometry">
            <mxPoint x="695" y="320" as="sourcePoint" />
            <mxPoint x="765" y="400" as="targetPoint" />
            <Array as="points" />
          </mxGeometry>
        </mxCell>
        <mxCell id="19oC4wSZYdJJeI38Iw4X-40" value="False" style="text;html=1;align=center;verticalAlign=middle;whiteSpace=wrap;rounded=0;" vertex="1" parent="WIyWlLk6GJQsqaUBKTNV-1">
          <mxGeometry x="742.5" y="307.5" width="45" height="25" as="geometry" />
        </mxCell>
        <mxCell id="19oC4wSZYdJJeI38Iw4X-62" style="edgeStyle=orthogonalEdgeStyle;rounded=0;orthogonalLoop=1;jettySize=auto;html=1;entryX=0.5;entryY=0;entryDx=0;entryDy=0;" edge="1" parent="WIyWlLk6GJQsqaUBKTNV-1" source="19oC4wSZYdJJeI38Iw4X-41" target="19oC4wSZYdJJeI38Iw4X-46">
          <mxGeometry relative="1" as="geometry" />
        </mxCell>
        <mxCell id="19oC4wSZYdJJeI38Iw4X-41" value="&lt;font style=&quot;font-size: 12px;&quot;&gt;int end = counter-1;&lt;/font&gt;&lt;div style=&quot;&quot;&gt;&lt;div style=&quot;line-height: 22px; white-space: pre;&quot;&gt;&lt;font style=&quot;font-size: 12px;&quot;&gt;string str_from_int = to_string(a);&lt;/font&gt;&lt;/div&gt;&lt;/div&gt;" style="shape=internalStorage;whiteSpace=wrap;html=1;backgroundOutline=1;dx=15;dy=10;" vertex="1" parent="WIyWlLk6GJQsqaUBKTNV-1">
          <mxGeometry x="544.38" y="544" width="221.25" height="70" as="geometry" />
        </mxCell>
        <mxCell id="19oC4wSZYdJJeI38Iw4X-45" value="" style="edgeStyle=orthogonalEdgeStyle;rounded=0;orthogonalLoop=1;jettySize=auto;html=1;entryX=1;entryY=0.5;entryDx=0;entryDy=0;endArrow=none;endFill=0;" edge="1" parent="WIyWlLk6GJQsqaUBKTNV-1" source="19oC4wSZYdJJeI38Iw4X-27" target="19oC4wSZYdJJeI38Iw4X-43">
          <mxGeometry relative="1" as="geometry">
            <mxPoint x="615" y="320" as="sourcePoint" />
            <mxPoint x="579" y="560" as="targetPoint" />
            <Array as="points" />
          </mxGeometry>
        </mxCell>
        <mxCell id="19oC4wSZYdJJeI38Iw4X-43" value="True" style="text;html=1;align=center;verticalAlign=middle;whiteSpace=wrap;rounded=0;" vertex="1" parent="WIyWlLk6GJQsqaUBKTNV-1">
          <mxGeometry x="545" y="307.5" width="35" height="25" as="geometry" />
        </mxCell>
        <mxCell id="19oC4wSZYdJJeI38Iw4X-72" value="" style="edgeStyle=orthogonalEdgeStyle;rounded=0;orthogonalLoop=1;jettySize=auto;html=1;" edge="1" parent="WIyWlLk6GJQsqaUBKTNV-1" source="19oC4wSZYdJJeI38Iw4X-74" target="19oC4wSZYdJJeI38Iw4X-71">
          <mxGeometry relative="1" as="geometry">
            <Array as="points">
              <mxPoint x="655" y="780" />
              <mxPoint x="655" y="780" />
            </Array>
          </mxGeometry>
        </mxCell>
        <mxCell id="19oC4wSZYdJJeI38Iw4X-46" value="start &amp;lt; end" style="rhombus;whiteSpace=wrap;html=1;" vertex="1" parent="WIyWlLk6GJQsqaUBKTNV-1">
          <mxGeometry x="608" y="660" width="95" height="80" as="geometry" />
        </mxCell>
        <mxCell id="19oC4wSZYdJJeI38Iw4X-67" style="edgeStyle=orthogonalEdgeStyle;rounded=0;orthogonalLoop=1;jettySize=auto;html=1;entryX=1;entryY=0.5;entryDx=0;entryDy=0;exitX=0.5;exitY=1;exitDx=0;exitDy=0;" edge="1" parent="WIyWlLk6GJQsqaUBKTNV-1" source="19oC4wSZYdJJeI38Iw4X-69" target="19oC4wSZYdJJeI38Iw4X-63">
          <mxGeometry relative="1" as="geometry">
            <mxPoint x="775" y="1040" as="sourcePoint" />
          </mxGeometry>
        </mxCell>
        <mxCell id="19oC4wSZYdJJeI38Iw4X-47" value="&lt;div style=&quot;line-height: 22px; white-space: pre;&quot;&gt;&lt;font style=&quot;&quot; face=&quot;Helvetica&quot;&gt;(str_from_int[start]&lt;/font&gt;&lt;/div&gt;&lt;div style=&quot;line-height: 22px; white-space: pre;&quot;&gt;&lt;font style=&quot;&quot; face=&quot;Helvetica&quot;&gt;!= str_from_int[end]&lt;/font&gt;&lt;/div&gt;" style="rhombus;whiteSpace=wrap;html=1;" vertex="1" parent="WIyWlLk6GJQsqaUBKTNV-1">
          <mxGeometry x="679.25" y="850" width="187.5" height="100" as="geometry" />
        </mxCell>
        <mxCell id="19oC4wSZYdJJeI38Iw4X-48" value="" style="endArrow=classic;html=1;rounded=0;exitX=0.5;exitY=1;exitDx=0;exitDy=0;entryX=0.5;entryY=0;entryDx=0;entryDy=0;" edge="1" parent="WIyWlLk6GJQsqaUBKTNV-1" source="19oC4wSZYdJJeI38Iw4X-56" target="19oC4wSZYdJJeI38Iw4X-47">
          <mxGeometry relative="1" as="geometry">
            <mxPoint x="588" y="770" as="sourcePoint" />
            <mxPoint x="688" y="770" as="targetPoint" />
            <Array as="points" />
          </mxGeometry>
        </mxCell>
        <mxCell id="19oC4wSZYdJJeI38Iw4X-55" value="" style="endArrow=none;html=1;rounded=0;exitX=1;exitY=0.5;exitDx=0;exitDy=0;entryX=0;entryY=0.5;entryDx=0;entryDy=0;endFill=0;" edge="1" parent="WIyWlLk6GJQsqaUBKTNV-1" source="19oC4wSZYdJJeI38Iw4X-46" target="19oC4wSZYdJJeI38Iw4X-56">
          <mxGeometry relative="1" as="geometry">
            <mxPoint x="703" y="700" as="sourcePoint" />
            <mxPoint x="773" y="780" as="targetPoint" />
            <Array as="points" />
          </mxGeometry>
        </mxCell>
        <mxCell id="19oC4wSZYdJJeI38Iw4X-56" value="True" style="text;html=1;align=center;verticalAlign=middle;whiteSpace=wrap;rounded=0;" vertex="1" parent="WIyWlLk6GJQsqaUBKTNV-1">
          <mxGeometry x="750.5" y="687.5" width="45" height="25" as="geometry" />
        </mxCell>
        <mxCell id="19oC4wSZYdJJeI38Iw4X-59" value="" style="edgeStyle=orthogonalEdgeStyle;rounded=0;orthogonalLoop=1;jettySize=auto;html=1;entryX=1;entryY=0.5;entryDx=0;entryDy=0;endArrow=none;endFill=0;" edge="1" parent="WIyWlLk6GJQsqaUBKTNV-1" target="19oC4wSZYdJJeI38Iw4X-60">
          <mxGeometry relative="1" as="geometry">
            <mxPoint x="679.25" y="900" as="sourcePoint" />
            <mxPoint x="658.25" y="1140" as="targetPoint" />
            <Array as="points" />
          </mxGeometry>
        </mxCell>
        <mxCell id="19oC4wSZYdJJeI38Iw4X-61" style="edgeStyle=orthogonalEdgeStyle;rounded=0;orthogonalLoop=1;jettySize=auto;html=1;entryX=0.5;entryY=0;entryDx=0;entryDy=0;exitX=0.5;exitY=1;exitDx=0;exitDy=0;" edge="1" parent="WIyWlLk6GJQsqaUBKTNV-1" source="19oC4wSZYdJJeI38Iw4X-60">
          <mxGeometry relative="1" as="geometry">
            <mxPoint x="637.75" y="951" as="targetPoint" />
            <Array as="points">
              <mxPoint x="638" y="913" />
              <mxPoint x="638" y="950" />
            </Array>
          </mxGeometry>
        </mxCell>
        <mxCell id="19oC4wSZYdJJeI38Iw4X-60" value="True" style="text;html=1;align=center;verticalAlign=middle;whiteSpace=wrap;rounded=0;" vertex="1" parent="WIyWlLk6GJQsqaUBKTNV-1">
          <mxGeometry x="618" y="887.5" width="39" height="25" as="geometry" />
        </mxCell>
        <mxCell id="19oC4wSZYdJJeI38Iw4X-65" style="edgeStyle=orthogonalEdgeStyle;rounded=0;orthogonalLoop=1;jettySize=auto;html=1;exitX=0;exitY=0.5;exitDx=0;exitDy=0;" edge="1" parent="WIyWlLk6GJQsqaUBKTNV-1" source="19oC4wSZYdJJeI38Iw4X-63">
          <mxGeometry relative="1" as="geometry">
            <mxPoint x="656" y="630" as="targetPoint" />
            <Array as="points">
              <mxPoint x="540" y="1085" />
              <mxPoint x="540" y="630" />
            </Array>
          </mxGeometry>
        </mxCell>
        <mxCell id="19oC4wSZYdJJeI38Iw4X-63" value="++start;&lt;div&gt;--end;&lt;/div&gt;" style="rounded=0;whiteSpace=wrap;html=1;" vertex="1" parent="WIyWlLk6GJQsqaUBKTNV-1">
          <mxGeometry x="580" y="1055" width="120" height="60" as="geometry" />
        </mxCell>
        <mxCell id="19oC4wSZYdJJeI38Iw4X-68" value="" style="edgeStyle=orthogonalEdgeStyle;rounded=0;orthogonalLoop=1;jettySize=auto;html=1;entryX=0.5;entryY=0;entryDx=0;entryDy=0;" edge="1" parent="WIyWlLk6GJQsqaUBKTNV-1" source="19oC4wSZYdJJeI38Iw4X-47" target="19oC4wSZYdJJeI38Iw4X-69">
          <mxGeometry relative="1" as="geometry">
            <mxPoint x="773" y="950" as="sourcePoint" />
            <mxPoint x="698" y="1060" as="targetPoint" />
          </mxGeometry>
        </mxCell>
        <mxCell id="19oC4wSZYdJJeI38Iw4X-69" value="False" style="text;html=1;align=center;verticalAlign=middle;whiteSpace=wrap;rounded=0;" vertex="1" parent="WIyWlLk6GJQsqaUBKTNV-1">
          <mxGeometry x="743" y="985" width="60" height="30" as="geometry" />
        </mxCell>
        <mxCell id="19oC4wSZYdJJeI38Iw4X-70" value="return 0;" style="ellipse;whiteSpace=wrap;html=1;" vertex="1" parent="WIyWlLk6GJQsqaUBKTNV-1">
          <mxGeometry x="591.5" y="950" width="92" height="60" as="geometry" />
        </mxCell>
        <mxCell id="19oC4wSZYdJJeI38Iw4X-71" value="return 1;" style="ellipse;whiteSpace=wrap;html=1;" vertex="1" parent="WIyWlLk6GJQsqaUBKTNV-1">
          <mxGeometry x="609.5" y="790" width="92" height="60" as="geometry" />
        </mxCell>
        <mxCell id="19oC4wSZYdJJeI38Iw4X-73" value="" style="edgeStyle=orthogonalEdgeStyle;rounded=0;orthogonalLoop=1;jettySize=auto;html=1;entryX=0.5;entryY=0;entryDx=0;entryDy=0;endArrow=none;endFill=0;" edge="1" parent="WIyWlLk6GJQsqaUBKTNV-1" source="19oC4wSZYdJJeI38Iw4X-46" target="19oC4wSZYdJJeI38Iw4X-74">
          <mxGeometry relative="1" as="geometry">
            <mxPoint x="656" y="740" as="sourcePoint" />
            <mxPoint x="656" y="790" as="targetPoint" />
            <Array as="points">
              <mxPoint x="650" y="740" />
              <mxPoint x="650" y="740" />
            </Array>
          </mxGeometry>
        </mxCell>
        <mxCell id="19oC4wSZYdJJeI38Iw4X-74" value="False" style="text;html=1;align=center;verticalAlign=middle;whiteSpace=wrap;rounded=0;" vertex="1" parent="WIyWlLk6GJQsqaUBKTNV-1">
          <mxGeometry x="631.5" y="760" width="47" height="15" as="geometry" />
        </mxCell>
        <mxCell id="19oC4wSZYdJJeI38Iw4X-79" value="" style="edgeStyle=orthogonalEdgeStyle;rounded=0;orthogonalLoop=1;jettySize=auto;html=1;" edge="1" parent="WIyWlLk6GJQsqaUBKTNV-1" source="19oC4wSZYdJJeI38Iw4X-77" target="19oC4wSZYdJJeI38Iw4X-78">
          <mxGeometry relative="1" as="geometry" />
        </mxCell>
        <mxCell id="19oC4wSZYdJJeI38Iw4X-77" value="Початок" style="ellipse;whiteSpace=wrap;html=1;" vertex="1" parent="WIyWlLk6GJQsqaUBKTNV-1">
          <mxGeometry x="959" y="40" width="120" height="80" as="geometry" />
        </mxCell>
        <mxCell id="19oC4wSZYdJJeI38Iw4X-81" value="" style="edgeStyle=orthogonalEdgeStyle;rounded=0;orthogonalLoop=1;jettySize=auto;html=1;" edge="1" parent="WIyWlLk6GJQsqaUBKTNV-1" source="19oC4wSZYdJJeI38Iw4X-78" target="19oC4wSZYdJJeI38Iw4X-80">
          <mxGeometry relative="1" as="geometry" />
        </mxCell>
        <mxCell id="19oC4wSZYdJJeI38Iw4X-78" value="&lt;div style=&quot;line-height: 22px; white-space: pre;&quot;&gt;&lt;font face=&quot;Helvetica&quot; style=&quot;font-size: 12px;&quot;&gt;isPalindrome(&quot;level&quot;, 0, 4)&lt;/font&gt;&lt;/div&gt;&lt;div style=&quot;line-height: 22px; white-space: pre;&quot;&gt;&lt;div style=&quot;line-height: 22px;&quot;&gt;&lt;font face=&quot;Helvetica&quot; style=&quot;font-size: 12px;&quot;&gt;isPalindrome(1234321)&lt;/font&gt;&lt;/div&gt;&lt;/div&gt;" style="shape=process;whiteSpace=wrap;html=1;backgroundOutline=1;size=0.05759162303664921;" vertex="1" parent="WIyWlLk6GJQsqaUBKTNV-1">
          <mxGeometry x="928.5" y="160" width="181" height="60" as="geometry" />
        </mxCell>
        <mxCell id="19oC4wSZYdJJeI38Iw4X-80" value="Кінець" style="ellipse;whiteSpace=wrap;html=1;" vertex="1" parent="WIyWlLk6GJQsqaUBKTNV-1">
          <mxGeometry x="959" y="252.5" width="120" height="80" as="geometry" />
        </mxCell>
      </root>
    </mxGraphModel>
  </diagram>
</mxfile>
